<svg width="1050" height="249.002" viewBox="0 0 1050 249.002" xmlns="http://www.w3.org/2000/svg"><g id="svgGroup" stroke-linecap="round" fill-rule="evenodd" font-size="9pt" stroke="#000" stroke-width="0.25mm" fill="#000" style="stroke:#000;stroke-width:0.25mm;fill:#000"><path d="M 576.6 245.701 L 562.2 245.701 L 562.2 2.701 L 575.1 2.701 L 657.6 207.901 L 657.6 2.701 L 672 2.701 L 672 245.701 L 659.1 245.701 L 576.6 40.201 L 576.6 245.701 Z M 768.3 175.801 L 768.3 72.601 A 148.238 148.238 0 0 1 769.421 53.935 A 108.676 108.676 0 0 1 773.4 35.251 A 52.06 52.06 0 0 1 781.754 18.846 A 47.517 47.517 0 0 1 791.4 9.451 Q 801.617 1.967 818.231 0.41 A 98.372 98.372 0 0 1 827.4 0.001 A 87.968 87.968 0 0 1 839.804 0.821 Q 852.45 2.626 860.7 8.401 A 44.047 44.047 0 0 1 875.843 27.148 A 56.402 56.402 0 0 1 877.8 32.251 A 96.136 96.136 0 0 1 881.585 48.731 Q 882.736 56.745 882.879 65.794 A 164.026 164.026 0 0 1 882.9 68.401 L 882.9 80.701 L 867.3 80.701 L 867.3 68.401 A 154.336 154.336 0 0 0 866.836 56.089 Q 866.353 50.061 865.366 44.835 A 78.186 78.186 0 0 0 864 38.851 A 39.477 39.477 0 0 0 860.079 29.282 A 30.917 30.917 0 0 0 852 20.101 A 29.144 29.144 0 0 0 843.009 15.589 Q 836.344 13.501 827.4 13.501 A 67.545 67.545 0 0 0 817.316 14.204 Q 812.205 14.978 808.051 16.602 A 29.424 29.424 0 0 0 800.7 20.701 A 34.043 34.043 0 0 0 789.831 35.43 A 44.642 44.642 0 0 0 788.1 40.801 A 99.638 99.638 0 0 0 785.731 53.818 Q 784.946 60.482 784.823 67.991 A 171.869 171.869 0 0 0 784.8 70.801 L 784.8 178.201 Q 784.8 196.201 788.4 208.951 A 41.172 41.172 0 0 0 792.785 219.226 A 32.738 32.738 0 0 0 801.3 228.601 A 31.497 31.497 0 0 0 810.873 233.318 Q 817.95 235.501 827.4 235.501 A 61.207 61.207 0 0 0 836.793 234.827 Q 846.319 233.345 852.3 228.601 A 32.514 32.514 0 0 0 862.085 215.473 A 43.464 43.464 0 0 0 864.15 209.251 A 97.126 97.126 0 0 0 866.411 196.689 Q 867.161 190.258 867.278 183.012 A 167.643 167.643 0 0 0 867.3 180.301 L 867.3 165.601 L 882.9 165.601 L 882.9 177.601 A 152.643 152.643 0 0 1 881.774 196.598 A 112.15 112.15 0 0 1 878.1 214.501 A 53.68 53.68 0 0 1 871.761 228.541 A 44.649 44.649 0 0 1 861.3 239.851 A 40.28 40.28 0 0 1 848.649 246.186 Q 842.996 247.934 836.168 248.597 A 90.881 90.881 0 0 1 827.4 249.001 A 93.298 93.298 0 0 1 813.499 248.034 Q 799.416 245.907 790.65 239.101 A 49.606 49.606 0 0 1 773.899 215.111 A 61.393 61.393 0 0 1 773.1 212.551 Q 768.3 195.901 768.3 175.801 Z M 356.7 245.701 L 341.4 245.701 L 282.6 2.701 L 298.8 2.701 L 349.2 217.201 L 396.3 2.701 L 412.2 2.701 L 356.7 245.701 Z M 161.7 245.701 L 145.5 245.701 L 145.5 2.701 L 204.3 2.701 A 94.237 94.237 0 0 1 216.746 3.468 Q 222.918 4.292 227.968 6.003 A 38.3 38.3 0 0 1 237.45 10.651 Q 249 18.601 253.35 32.251 A 91.068 91.068 0 0 1 257.036 50.057 A 116.555 116.555 0 0 1 257.7 62.701 A 115.56 115.56 0 0 1 255.595 85.018 A 105.6 105.6 0 0 1 254.85 88.501 A 49.517 49.517 0 0 1 249.796 101.746 A 43.266 43.266 0 0 1 244.35 109.351 A 30.904 30.904 0 0 1 233.694 116.944 Q 228.546 119.232 222 120.301 L 261 245.701 L 244.8 245.701 L 207 123.301 L 161.7 123.301 L 161.7 245.701 Z M 534 245.701 L 428.7 245.701 L 428.7 232.801 L 516 15.601 L 436.5 15.601 L 436.5 2.701 L 533.7 2.701 L 533.7 12.901 L 445.5 232.801 L 534 232.801 L 534 245.701 Z M 16.2 245.701 L 0 245.701 L 0 2.701 L 57 2.701 A 94.535 94.535 0 0 1 69.75 3.507 Q 82.744 5.279 91.2 10.951 Q 103.5 19.201 108.45 33.301 A 85.521 85.521 0 0 1 112.453 50.397 A 113.906 113.906 0 0 1 113.4 65.401 Q 113.4 81.601 108.45 96.301 Q 103.5 111.001 91.2 120.301 Q 81.146 127.903 64.879 129.291 A 89.191 89.191 0 0 1 57.3 129.601 L 16.2 129.601 L 16.2 245.701 Z M 911.4 182.401 L 911.4 135.601 Q 911.4 119.07 913.596 106.581 A 98.471 98.471 0 0 1 915.15 99.301 A 51.698 51.698 0 0 1 918.764 89.288 Q 922.444 81.788 928.35 77.101 A 31.625 31.625 0 0 1 938.89 71.718 Q 945.816 69.601 954.9 69.601 Q 966.756 69.601 974.921 73.083 A 29.582 29.582 0 0 1 981.75 77.101 A 34.783 34.783 0 0 1 991.057 88.676 Q 993.381 93.208 994.856 98.79 A 61.617 61.617 0 0 1 994.95 99.151 A 103.805 103.805 0 0 1 997.235 111.097 Q 998.105 117.519 998.458 124.954 A 224.566 224.566 0 0 1 998.7 135.601 L 998.7 182.401 Q 998.7 198.932 996.504 211.421 A 98.471 98.471 0 0 1 994.95 218.701 A 51.698 51.698 0 0 1 991.336 228.713 Q 987.656 236.213 981.75 240.901 Q 972.3 248.401 954.9 248.401 A 62.786 62.786 0 0 1 944.616 247.613 Q 939.097 246.695 934.668 244.708 A 29.589 29.589 0 0 1 928.35 240.901 A 34.486 34.486 0 0 1 919.233 229.64 Q 916.703 224.788 915.15 218.701 A 106.523 106.523 0 0 1 912.865 206.706 Q 911.4 195.901 911.4 182.401 Z M 982.8 183.001 L 982.8 135.001 Q 982.8 122.138 981.833 112.178 A 141.377 141.377 0 0 0 981.15 106.351 A 46.281 46.281 0 0 0 979.502 98.842 Q 977.437 92.284 973.5 88.051 Q 968.555 82.735 959.126 81.8 A 42.883 42.883 0 0 0 954.9 81.601 A 38.923 38.923 0 0 0 948.097 82.155 Q 944.459 82.802 941.613 84.205 A 17.085 17.085 0 0 0 936.45 88.051 Q 930.6 94.501 928.95 106.351 Q 927.687 115.424 927.391 127.398 A 307.861 307.861 0 0 0 927.3 135.001 L 927.3 183.001 Q 927.3 199.501 928.95 211.501 Q 930.16 220.302 933.629 226.117 A 23.938 23.938 0 0 0 936.45 229.951 A 17.919 17.919 0 0 0 943.916 234.763 Q 946.813 235.787 950.379 236.171 A 42.292 42.292 0 0 0 954.9 236.401 A 39.028 39.028 0 0 0 961.8 235.832 Q 965.54 235.159 968.466 233.689 A 17.591 17.591 0 0 0 973.5 229.951 A 25.731 25.731 0 0 0 978.231 222.543 Q 979.644 219.27 980.494 215.278 A 52.464 52.464 0 0 0 981.15 211.501 A 160.543 160.543 0 0 0 982.218 201.008 Q 982.8 192.798 982.8 183.001 Z M 16.2 15.301 L 16.2 117.001 L 53.7 117.001 Q 65.202 117.001 73.49 113.878 A 35.577 35.577 0 0 0 77.85 111.901 A 29.967 29.967 0 0 0 89.775 100.023 A 39.701 39.701 0 0 0 91.95 95.551 A 52.501 52.501 0 0 0 94.738 86.258 Q 96.6 77.361 96.6 65.401 Q 96.6 46.873 92.808 36.064 A 41.055 41.055 0 0 0 92.4 34.951 A 31.493 31.493 0 0 0 88.146 27.143 A 24.455 24.455 0 0 0 78.9 19.651 A 39.933 39.933 0 0 0 71.039 17 Q 66.967 16.051 62.128 15.632 A 94.414 94.414 0 0 0 54 15.301 L 16.2 15.301 Z M 161.7 15.601 L 161.7 110.701 L 203.7 110.701 A 66.968 66.968 0 0 0 212.301 110.185 Q 216.709 109.613 220.302 108.405 A 26.405 26.405 0 0 0 227.4 104.851 A 28.96 28.96 0 0 0 237.166 92.384 A 37.802 37.802 0 0 0 238.65 88.201 Q 241.8 77.401 241.8 62.701 A 112.141 112.141 0 0 0 241.126 49.964 Q 239.57 36.395 234.423 28.037 A 32.948 32.948 0 0 0 234.15 27.601 A 22.589 22.589 0 0 0 223.815 19.088 Q 216.093 15.707 204.15 15.604 A 87.495 87.495 0 0 0 203.4 15.601 L 161.7 15.601 Z M 1050 245.701 L 1032.3 245.701 L 1032.3 214.501 L 1050 214.501 L 1050 245.701 Z" vector-effect="non-scaling-stroke"/></g></svg>